<?xml version="1.0" encoding="UTF-8"?>
<svg xmlns="http://www.w3.org/2000/svg" width="75" height="75" viewBox="0 0 75 75" fill="none">
  <path fill-rule="evenodd" clip-rule="evenodd" d="M11.0757 3H36.3097L36.2573 10.5749H18.5982V48.5307C19.914 48.0242 21.3463 47.7505 22.8368 47.7505H55.7156V30.7027H63.238V55.273H22.8368C20.735 55.273 18.9766 56.781 18.5982 58.7722V60.4025C18.9766 62.3995 20.735 63.9075 22.8368 63.9075H63.1915V71.43H22.8368C16.2983 71.43 11 66.1316 11 59.5873C11 40.6647 11.0757 21.9284 11.0757 3ZM41.544 3H63.2439V25.4393H55.7214V15.9896L41.4916 30.2194L36.17 24.8978L50.3998 10.569H41.544V3Z" fill="#FF0A54"></path>
</svg>
