<svg xmlns="http://www.w3.org/2000/svg" width="450" height="118" viewBox="0 0 450 118" fill="none"><path fill-rule="evenodd" clip-rule="evenodd" d="M0.956172 0.234985H44.2962L44.2062 13.245H13.8762V78.435C16.1362 77.565 18.5962 77.095 21.1562 77.095H77.6262V47.815H90.5462V90.015H21.1562C17.5462 90.015 14.5262 92.605 13.8762 96.025V98.825C14.5262 102.255 17.5462 104.845 21.1562 104.845H90.4662V117.765H21.1562C9.92617 117.765 0.826172 108.665 0.826172 97.425C0.826172 64.925 0.956172 32.745 0.956172 0.234985ZM53.2862 0.234985H90.5562V38.775H77.6362V22.545L53.1962 46.985L44.0562 37.845L68.4962 13.235H53.2862V0.234985Z" fill="#FF0A54"></path><path d="M432.668 59.3672C433.398 59.3672 433.99 58.7756 433.99 58.0459V55.2336C433.99 54.7497 433.725 54.3045 433.3 54.0731L400.89 36.4321C400.465 36.2007 400.2 35.7555 400.2 35.2715V22.5919C400.2 22.2441 400.337 21.9103 400.582 21.663L409.115 13.0316C409.363 12.7806 409.702 12.6393 410.055 12.6393H438.254C438.605 12.6393 438.941 12.7785 439.189 13.0263L447.824 21.662C448.072 21.9098 448.211 22.2459 448.211 22.5963V29.9236C448.211 30.6533 447.62 31.2449 446.89 31.2449H435.097C434.367 31.2449 433.776 30.6533 433.776 29.9236V25.295C433.776 24.5653 433.184 23.9737 432.455 23.9737H416.599C415.869 23.9737 415.277 24.5653 415.277 25.295V28.1061C415.277 28.5907 415.542 29.0364 415.968 29.2675L448.482 46.9092C448.908 47.1403 449.174 47.586 449.174 48.0706V60.7446C449.174 61.095 449.034 61.4311 448.787 61.6789L440.151 70.3146C439.903 70.5624 439.567 70.7016 439.217 70.7016H409.836C409.486 70.7016 409.15 70.5624 408.902 70.3146L400.266 61.6789C400.019 61.4311 399.879 61.095 399.879 60.7446V54.0589C399.879 53.3292 400.471 52.7376 401.201 52.7376H412.887C413.616 52.7376 414.208 53.3292 414.208 54.0589V58.0459C414.208 58.7756 414.799 59.3672 415.529 59.3672H432.668Z" fill="#1F1E23"></path><path d="M335.497 58.2979C336.227 58.2979 336.818 57.7063 336.818 56.9766V51.8134C336.818 51.0837 337.41 50.4921 338.14 50.4921H350.253C350.983 50.4921 351.574 51.0837 351.574 51.8134V60.749C351.574 61.0968 351.437 61.4306 351.193 61.678L342.659 70.3093C342.411 70.5603 342.073 70.7016 341.72 70.7016H312.456C312.102 70.7016 311.764 70.5603 311.516 70.3093L302.983 61.678C302.738 61.4306 302.601 61.0968 302.601 60.749V22.5919C302.601 22.2441 302.738 21.9103 302.983 21.663L311.516 13.0316C311.764 12.7806 312.102 12.6393 312.456 12.6393H341.72C342.073 12.6393 342.411 12.7806 342.659 13.0316L351.193 21.663C351.437 21.9103 351.574 22.2441 351.574 22.5919V43.1828C351.574 43.9125 350.983 44.5041 350.253 44.5041H318.892C318.163 44.5041 317.571 45.0956 317.571 45.8254V56.9766C317.571 57.7063 318.163 58.2979 318.892 58.2979H335.497ZM336.818 26.3643C336.818 25.6346 336.227 25.043 335.497 25.043H318.892C318.163 25.043 317.571 25.6346 317.571 26.3643V35.4839C317.571 36.2136 318.163 36.8052 318.892 36.8052H335.497C336.227 36.8052 336.818 36.2136 336.818 35.4839V26.3643Z" fill="#1F1E23"></path><path d="M279.047 1.61688C279.047 0.887144 279.638 0.29558 280.368 0.29558H293.016C293.746 0.29558 294.338 0.887144 294.338 1.61688V69.3789C294.338 70.1087 293.746 70.7002 293.016 70.7002H282.079C281.349 70.7002 280.758 70.1087 280.758 69.3789V67.2976C280.758 66.1152 279.324 65.5281 278.495 66.3709L274.623 70.3056C274.375 70.5581 274.036 70.7002 273.681 70.7002H253.936C253.583 70.7002 253.244 70.5589 252.996 70.3079L244.463 61.6766C244.218 61.4292 244.081 61.0954 244.081 60.7476V22.5905C244.081 22.2427 244.218 21.9089 244.463 21.6616L252.996 13.0302C253.244 12.7792 253.583 12.6379 253.936 12.6379H277.726C278.455 12.6379 279.047 12.0463 279.047 11.3166V1.61688ZM259.372 55.1574C259.372 55.8871 259.964 56.4787 260.693 56.4787H274.683C275.014 56.4787 275.333 56.3548 275.576 56.1314L278.618 53.3428C278.891 53.0925 279.047 52.7392 279.047 52.3688V27.753C279.047 27.0233 278.455 26.4317 277.726 26.4317H256.688C255.101 26.4317 254.861 28.7166 256.414 29.0456L258.325 29.4506C258.935 29.58 259.372 30.119 259.372 30.7432V55.1574Z" fill="#1F1E23"></path><path d="M235.8 21.662C236.048 21.9098 236.187 22.2459 236.187 22.5963V69.3803C236.187 70.1101 235.596 70.7016 234.866 70.7016H224.677C223.947 70.7016 223.356 70.1101 223.356 69.3803V67.1915C223.356 66.0092 221.922 65.422 221.093 66.2647L217.114 70.3071C216.866 70.5595 216.527 70.7016 216.173 70.7016H197.171C196.82 70.7016 196.484 70.5624 196.236 70.3146L187.601 61.6789C187.353 61.4311 187.214 61.095 187.214 60.7446V47.7246C187.214 47.3742 187.353 47.0381 187.601 46.7903L196.236 38.1546C196.484 37.9068 196.82 37.7676 197.171 37.7676H220.11C220.839 37.7676 221.431 37.176 221.431 36.4463V27.1128C221.431 26.3831 220.839 25.7915 220.11 25.7915H203.719C202.989 25.7915 202.398 26.3831 202.398 27.1128V30.1375C202.398 30.8672 201.806 31.4588 201.076 31.4588H189.283C188.554 31.4588 187.962 30.8672 187.962 30.1375V22.5963C187.962 22.2459 188.101 21.9098 188.349 21.662L196.985 13.0263C197.233 12.7785 197.569 12.6393 197.919 12.6393H226.23C226.58 12.6393 226.917 12.7785 227.164 13.0263L235.8 21.662ZM221.431 47.3224C221.431 46.5926 220.839 46.0011 220.11 46.0011H203.291C202.561 46.0011 201.97 46.5926 201.97 47.3224V57.2974C201.97 58.0271 202.561 58.6187 203.291 58.6187H217.091C217.407 58.6187 217.713 58.5051 217.953 58.2986L220.972 55.6992C221.263 55.4482 221.431 55.0827 221.431 54.698V47.3224Z" fill="#1F1E23"></path><path d="M163.72 69.3803C163.72 70.1101 163.129 70.7016 162.399 70.7016H149.751C149.021 70.7016 148.429 70.1101 148.429 69.3803V13.9606C148.429 13.2309 149.021 12.6393 149.751 12.6393H160.688C161.418 12.6393 162.009 13.2309 162.009 13.9606V17.2552C162.009 18.4324 163.432 19.0219 164.265 18.1895L169.428 13.0263C169.676 12.7785 170.012 12.6393 170.362 12.6393H181.539C182.269 12.6393 182.86 13.2309 182.86 13.9606V25.9672C182.86 26.697 182.269 27.2885 181.539 27.2885H162.415C161.187 27.2885 160.623 28.8183 161.558 29.6153L163.256 31.0631C163.551 31.3142 163.72 31.6816 163.72 32.0685V69.3803Z" fill="#1F1E23"></path><path d="M375.936 69.3803C375.936 70.1101 375.344 70.7016 374.615 70.7016H361.966C361.237 70.7016 360.645 70.1101 360.645 69.3803V13.9606C360.645 13.2309 361.237 12.6393 361.966 12.6393H372.904C373.634 12.6393 374.225 13.2309 374.225 13.9606V17.2552C374.225 18.4324 375.648 19.0219 376.481 18.1895L381.644 13.0263C381.892 12.7785 382.228 12.6393 382.578 12.6393H393.755C394.485 12.6393 395.076 13.2309 395.076 13.9606V25.9672C395.076 26.697 394.485 27.2885 393.755 27.2885H374.631C373.403 27.2885 372.839 28.8183 373.774 29.6153L375.472 31.0631C375.766 31.3142 375.936 31.6816 375.936 32.0685V69.3803Z" fill="#1F1E23"></path><path d="M142.101 69.3798C142.101 70.1095 141.509 70.7011 140.78 70.7011H120.942C120.591 70.7011 120.255 70.5619 120.007 70.3141L111.372 61.6783C111.124 61.4306 110.985 61.0945 110.985 60.744V26.1499C110.985 25.4202 110.393 24.8286 109.663 24.8286H104.714C103.984 24.8286 103.393 24.2371 103.393 23.5073V13.96C103.393 13.2303 103.984 12.6387 104.714 12.6387H109.663C110.393 12.6387 110.985 12.0472 110.985 11.3174V1.55628C110.985 0.826548 111.576 0.234985 112.306 0.234985H124.954C125.684 0.234985 126.275 0.826549 126.275 1.55628V11.3174C126.275 12.0472 126.867 12.6387 127.597 12.6387H139.924C140.654 12.6387 141.245 13.2303 141.245 13.96V23.5073C141.245 24.2371 140.654 24.8286 139.924 24.8286H124.518C123.07 24.8286 122.677 26.8233 124.017 27.3725L125.455 27.9617C125.951 28.165 126.275 28.648 126.275 29.1843V55.1583C126.275 55.888 126.867 56.4795 127.597 56.4795H140.78C141.509 56.4795 142.101 57.0711 142.101 57.8008V69.3798Z" fill="#1F1E23"></path><path d="M439.518 84.531H443.471V111.252C443.471 112.54 443.65 113.333 444.009 113.633C444.369 113.932 444.803 114.082 445.312 114.082C445.941 114.082 446.539 114.022 447.108 113.902C447.677 113.752 448.156 113.603 448.545 113.453L449.174 116.686C448.515 116.956 447.737 117.18 446.839 117.36C445.941 117.54 445.147 117.63 444.459 117.63C442.932 117.63 441.719 117.195 440.821 116.327C439.953 115.459 439.518 114.246 439.518 112.689V84.531Z" fill="#1F1E23"></path><path d="M422.784 117.765C421.017 117.765 419.415 117.451 417.978 116.822C416.541 116.163 415.299 115.28 414.251 114.172C413.203 113.034 412.394 111.732 411.826 110.265C411.257 108.798 410.972 107.256 410.972 105.639C410.972 103.993 411.257 102.436 411.826 100.969C412.394 99.5016 413.203 98.2141 414.251 97.1064C415.299 95.9687 416.541 95.0854 417.978 94.4567C419.445 93.798 421.047 93.4687 422.784 93.4687C424.55 93.4687 426.152 93.798 427.589 94.4567C429.026 95.0854 430.269 95.9687 431.316 97.1064C432.394 98.2141 433.218 99.5016 433.787 100.969C434.355 102.436 434.64 103.993 434.64 105.639C434.64 107.256 434.355 108.798 433.787 110.265C433.218 111.732 432.409 113.034 431.361 114.172C430.314 115.28 429.056 116.163 427.589 116.822C426.152 117.451 424.55 117.765 422.784 117.765ZM415.014 105.684C415.014 107.301 415.359 108.768 416.047 110.085C416.766 111.403 417.709 112.451 418.876 113.229C420.044 113.977 421.347 114.352 422.784 114.352C424.221 114.352 425.523 113.963 426.691 113.184C427.888 112.406 428.831 111.358 429.52 110.04C430.239 108.693 430.598 107.211 430.598 105.594C430.598 103.978 430.239 102.511 429.52 101.193C428.831 99.8758 427.888 98.8279 426.691 98.0495C425.523 97.271 424.221 96.8818 422.784 96.8818C421.347 96.8818 420.044 97.286 418.876 98.0944C417.709 98.8728 416.766 99.9207 416.047 101.238C415.359 102.555 415.014 104.037 415.014 105.684Z" fill="#1F1E23"></path><path d="M395.899 117.765C394.132 117.765 392.531 117.451 391.094 116.822C389.656 116.163 388.414 115.28 387.366 114.172C386.318 113.034 385.51 111.732 384.941 110.265C384.372 108.798 384.088 107.256 384.088 105.639C384.088 103.993 384.372 102.436 384.941 100.969C385.51 99.5016 386.318 98.2141 387.366 97.1064C388.414 95.9687 389.656 95.0854 391.094 94.4567C392.561 93.798 394.162 93.4687 395.899 93.4687C397.665 93.4687 399.267 93.798 400.704 94.4567C402.141 95.0854 403.384 95.9687 404.432 97.1064C405.51 98.2141 406.333 99.5016 406.902 100.969C407.471 102.436 407.755 103.993 407.755 105.639C407.755 107.256 407.471 108.798 406.902 110.265C406.333 111.732 405.525 113.034 404.477 114.172C403.429 115.28 402.171 116.163 400.704 116.822C399.267 117.451 397.665 117.765 395.899 117.765ZM388.129 105.684C388.129 107.301 388.474 108.768 389.162 110.085C389.881 111.403 390.824 112.451 391.992 113.229C393.159 113.977 394.462 114.352 395.899 114.352C397.336 114.352 398.638 113.963 399.806 113.184C401.004 112.406 401.947 111.358 402.635 110.04C403.354 108.693 403.713 107.211 403.713 105.594C403.713 103.978 403.354 102.511 402.635 101.193C401.947 99.8758 401.004 98.8279 399.806 98.0495C398.638 97.271 397.336 96.8818 395.899 96.8818C394.462 96.8818 393.159 97.286 391.992 98.0944C390.824 98.8728 389.881 99.9207 389.162 101.238C388.474 102.555 388.129 104.037 388.129 105.684Z" fill="#1F1E23"></path><path d="M379.514 117.315H375.562V104.202C375.562 101.806 375.128 100.01 374.26 98.8123C373.421 97.6148 372.209 97.016 370.622 97.016C369.604 97.016 368.571 97.2854 367.523 97.8243C366.505 98.3633 365.607 99.0968 364.829 100.025C364.05 100.923 363.481 101.971 363.122 103.169V117.315H359.17V84.531H363.122V98.9022C364.05 97.2255 365.308 95.9082 366.895 94.9501C368.511 93.9621 370.248 93.4681 372.104 93.4681C373.511 93.4681 374.679 93.7226 375.607 94.2316C376.565 94.7106 377.329 95.3992 377.897 96.2974C378.466 97.1956 378.871 98.2435 379.11 99.4411C379.38 100.609 379.514 101.896 379.514 103.303V117.315Z" fill="#1F1E23"></path><path d="M344.677 117.765C342.911 117.765 341.294 117.451 339.827 116.822C338.39 116.163 337.132 115.265 336.055 114.127C335.007 112.989 334.183 111.687 333.584 110.22C333.016 108.753 332.731 107.196 332.731 105.549C332.731 103.334 333.225 101.313 334.213 99.4866C335.201 97.6603 336.593 96.2082 338.39 95.1303C340.186 94.0226 342.267 93.4687 344.632 93.4687C346.938 93.4687 348.944 93.9926 350.65 95.0405C352.387 96.0585 353.674 97.4357 354.512 99.1722L350.65 100.385C350.051 99.277 349.213 98.4237 348.135 97.8249C347.057 97.1962 345.86 96.8818 344.542 96.8818C343.105 96.8818 341.788 97.2561 340.59 98.0046C339.423 98.7531 338.495 99.786 337.806 101.103C337.117 102.391 336.773 103.873 336.773 105.549C336.773 107.196 337.117 108.693 337.806 110.04C338.525 111.358 339.468 112.406 340.635 113.184C341.833 113.963 343.15 114.352 344.587 114.352C345.516 114.352 346.399 114.187 347.237 113.858C348.105 113.528 348.854 113.094 349.483 112.555C350.141 111.986 350.59 111.373 350.83 110.714L354.692 111.882C354.213 113.019 353.479 114.037 352.491 114.936C351.533 115.804 350.381 116.492 349.033 117.001C347.716 117.51 346.264 117.765 344.677 117.765Z" fill="#1F1E23"></path><path d="M326.292 92.1211C325.933 91.7019 325.454 91.2978 324.855 90.9085C324.256 90.5193 323.582 90.175 322.834 89.8756C322.085 89.5463 321.262 89.2918 320.364 89.1121C319.496 88.9026 318.582 88.7978 317.624 88.7978C315.169 88.7978 313.358 89.2618 312.19 90.19C311.023 91.1181 310.439 92.3906 310.439 94.0073C310.439 95.145 310.738 96.0432 311.337 96.7019C311.936 97.3606 312.849 97.8995 314.076 98.3187C315.334 98.7378 316.921 99.1719 318.837 99.621C321.052 100.1 322.969 100.684 324.585 101.373C326.202 102.061 327.445 102.989 328.313 104.157C329.181 105.295 329.615 106.822 329.615 108.738C329.615 110.265 329.316 111.597 328.717 112.735C328.148 113.842 327.34 114.771 326.292 115.519C325.244 116.238 324.017 116.777 322.609 117.136C321.202 117.465 319.675 117.63 318.029 117.63C316.412 117.63 314.825 117.465 313.268 117.136C311.741 116.777 310.289 116.268 308.912 115.609C307.535 114.95 306.247 114.127 305.05 113.139L306.981 109.726C307.46 110.235 308.074 110.744 308.822 111.253C309.6 111.732 310.469 112.181 311.427 112.6C312.415 113.019 313.478 113.363 314.615 113.633C315.753 113.872 316.921 113.992 318.118 113.992C320.394 113.992 322.16 113.588 323.418 112.78C324.675 111.941 325.304 110.729 325.304 109.142C325.304 107.944 324.945 106.986 324.226 106.268C323.537 105.549 322.505 104.95 321.127 104.471C319.75 103.992 318.073 103.513 316.097 103.034C313.942 102.495 312.13 101.911 310.663 101.283C309.196 100.624 308.088 99.7707 307.34 98.7228C306.621 97.6749 306.262 96.3127 306.262 94.6361C306.262 92.6001 306.756 90.8786 307.744 89.4714C308.732 88.0643 310.094 87.0014 311.831 86.2828C313.568 85.5643 315.529 85.205 317.714 85.205C319.151 85.205 320.484 85.3547 321.711 85.6541C322.969 85.9535 324.136 86.3727 325.214 86.9116C326.292 87.4505 327.28 88.0942 328.178 88.8427L326.292 92.1211Z" fill="#1F1E23"></path><path d="M281.687 117.765C279.741 117.765 277.915 117.451 276.208 116.822C274.501 116.163 273.034 115.19 271.807 113.903L273.334 111.118C274.681 112.376 276.028 113.274 277.376 113.813C278.723 114.352 280.1 114.621 281.507 114.621C283.124 114.621 284.441 114.322 285.459 113.723C286.477 113.094 286.986 112.181 286.986 110.984C286.986 110.115 286.717 109.472 286.178 109.052C285.669 108.633 284.936 108.289 283.977 108.019C283.019 107.72 281.882 107.391 280.564 107.031C278.948 106.552 277.585 106.043 276.477 105.505C275.37 104.966 274.531 104.292 273.963 103.484C273.394 102.675 273.109 101.657 273.109 100.43C273.109 98.9327 273.498 97.6752 274.277 96.6573C275.055 95.6094 276.118 94.816 277.466 94.2771C278.843 93.7381 280.4 93.4687 282.136 93.4687C283.873 93.4687 285.444 93.7381 286.852 94.2771C288.259 94.816 289.471 95.6094 290.489 96.6573L288.693 99.3968C287.765 98.4387 286.747 97.7351 285.639 97.286C284.531 96.807 283.289 96.5675 281.912 96.5675C281.103 96.5675 280.31 96.6722 279.531 96.8818C278.753 97.0615 278.109 97.4058 277.6 97.9147C277.091 98.3938 276.837 99.0824 276.837 99.9806C276.837 100.729 277.031 101.328 277.421 101.777C277.84 102.196 278.439 102.555 279.217 102.855C280.025 103.154 280.998 103.484 282.136 103.843C283.903 104.352 285.43 104.861 286.717 105.37C288.034 105.879 289.052 106.537 289.771 107.346C290.489 108.154 290.849 109.277 290.849 110.714C290.849 112.93 290.01 114.666 288.334 115.924C286.657 117.151 284.441 117.765 281.687 117.765Z" fill="#1F1E23"></path><path d="M259.758 117.765C257.812 117.765 255.986 117.451 254.279 116.822C252.573 116.163 251.106 115.19 249.878 113.903L251.405 111.118C252.753 112.376 254.1 113.274 255.447 113.813C256.794 114.352 258.172 114.621 259.579 114.621C261.196 114.621 262.513 114.322 263.531 113.723C264.549 113.094 265.058 112.181 265.058 110.984C265.058 110.115 264.788 109.472 264.249 109.052C263.741 108.633 263.007 108.289 262.049 108.019C261.091 107.72 259.953 107.391 258.636 107.031C257.019 106.552 255.657 106.043 254.549 105.505C253.441 104.966 252.603 104.292 252.034 103.484C251.465 102.675 251.181 101.657 251.181 100.43C251.181 98.9327 251.57 97.6752 252.348 96.6573C253.127 95.6094 254.19 94.816 255.537 94.2771C256.914 93.7381 258.471 93.4687 260.208 93.4687C261.944 93.4687 263.516 93.7381 264.923 94.2771C266.33 94.816 267.543 95.6094 268.561 96.6573L266.764 99.3968C265.836 98.4387 264.818 97.7351 263.711 97.286C262.603 96.807 261.36 96.5675 259.983 96.5675C259.175 96.5675 258.381 96.6722 257.603 96.8818C256.824 97.0615 256.181 97.4058 255.672 97.9147C255.163 98.3938 254.908 99.0824 254.908 99.9806C254.908 100.729 255.103 101.328 255.492 101.777C255.911 102.196 256.51 102.555 257.288 102.855C258.097 103.154 259.07 103.484 260.208 103.843C261.974 104.352 263.501 104.861 264.788 105.37C266.106 105.879 267.124 106.537 267.842 107.346C268.561 108.154 268.92 109.277 268.92 110.714C268.92 112.93 268.082 114.666 266.405 115.924C264.729 117.151 262.513 117.765 259.758 117.765Z" fill="#1F1E23"></path><path d="M235.561 117.765C233.794 117.765 232.177 117.451 230.71 116.822C229.273 116.163 228.016 115.28 226.938 114.172C225.89 113.034 225.067 111.732 224.468 110.265C223.899 108.798 223.615 107.241 223.615 105.594C223.615 103.379 224.123 101.358 225.141 99.5315C226.159 97.7052 227.567 96.2381 229.363 95.1303C231.189 94.0226 233.27 93.4687 235.605 93.4687C237.971 93.4687 240.022 94.0375 241.758 95.1752C243.525 96.283 244.887 97.7501 245.845 99.5764C246.833 101.373 247.327 103.319 247.327 105.415C247.327 105.714 247.312 106.013 247.282 106.313C247.282 106.582 247.267 106.792 247.237 106.942H227.791C227.911 108.469 228.33 109.831 229.049 111.028C229.797 112.196 230.755 113.124 231.923 113.813C233.09 114.471 234.348 114.801 235.695 114.801C237.132 114.801 238.48 114.442 239.737 113.723C241.025 113.004 241.908 112.061 242.387 110.894L245.8 111.837C245.291 112.975 244.528 113.992 243.51 114.891C242.522 115.789 241.339 116.492 239.962 117.001C238.614 117.51 237.147 117.765 235.561 117.765ZM227.656 104.202H243.644C243.525 102.675 243.09 101.328 242.342 100.16C241.593 98.9926 240.635 98.0794 239.468 97.4207C238.3 96.7621 237.013 96.4327 235.605 96.4327C234.228 96.4327 232.956 96.7621 231.788 97.4207C230.62 98.0794 229.662 98.9926 228.914 100.16C228.195 101.328 227.776 102.675 227.656 104.202Z" fill="#1F1E23"></path><path d="M219.04 117.316H215.088V104.202C215.088 101.717 214.699 99.9058 213.921 98.768C213.172 97.6004 212.019 97.0166 210.463 97.0166C209.385 97.0166 208.307 97.286 207.229 97.8249C206.181 98.3638 205.238 99.0974 204.4 100.026C203.591 100.924 203.008 101.972 202.648 103.169V117.316H198.696V93.8729H202.289V98.9028C202.918 97.795 203.726 96.8369 204.714 96.0285C205.702 95.2202 206.825 94.5914 208.082 94.1423C209.34 93.6932 210.657 93.4687 212.034 93.4687C213.382 93.4687 214.504 93.7232 215.403 94.2321C216.331 94.7112 217.049 95.3998 217.558 96.298C218.097 97.1663 218.471 98.1992 218.681 99.3968C218.921 100.594 219.04 101.897 219.04 103.304V117.316Z" fill="#1F1E23"></path><path d="M188.346 117.315V93.8723H192.298V117.315H188.346ZM188.346 89.4711V84.531H192.298V89.4711H188.346Z" fill="#1F1E23"></path><path d="M174.457 117.765C172.511 117.765 170.684 117.451 168.978 116.822C167.271 116.163 165.804 115.19 164.576 113.903L166.103 111.118C167.451 112.376 168.798 113.274 170.145 113.813C171.493 114.352 172.87 114.621 174.277 114.621C175.894 114.621 177.211 114.322 178.229 113.723C179.247 113.094 179.756 112.181 179.756 110.984C179.756 110.115 179.487 109.472 178.948 109.052C178.439 108.633 177.705 108.289 176.747 108.019C175.789 107.72 174.651 107.391 173.334 107.031C171.717 106.552 170.355 106.043 169.247 105.505C168.139 104.966 167.301 104.292 166.732 103.484C166.163 102.675 165.879 101.657 165.879 100.43C165.879 98.9327 166.268 97.6752 167.047 96.6573C167.825 95.6094 168.888 94.816 170.235 94.2771C171.612 93.7381 173.169 93.4687 174.906 93.4687C176.642 93.4687 178.214 93.7381 179.621 94.2771C181.028 94.816 182.241 95.6094 183.259 96.6573L181.463 99.3968C180.534 98.4387 179.516 97.7351 178.409 97.286C177.301 96.807 176.058 96.5675 174.681 96.5675C173.873 96.5675 173.079 96.6722 172.301 96.8818C171.523 97.0615 170.879 97.4058 170.37 97.9147C169.861 98.3938 169.606 99.0824 169.606 99.9806C169.606 100.729 169.801 101.328 170.19 101.777C170.609 102.196 171.208 102.555 171.987 102.855C172.795 103.154 173.768 103.484 174.906 103.843C176.672 104.352 178.199 104.861 179.487 105.37C180.804 105.879 181.822 106.537 182.54 107.346C183.259 108.154 183.618 109.277 183.618 110.714C183.618 112.93 182.78 114.666 181.103 115.924C179.427 117.151 177.211 117.765 174.457 117.765Z" fill="#1F1E23"></path><path d="M139.221 107.929V93.8726H143.173V107.166C143.173 109.561 143.592 111.358 144.43 112.555C145.269 113.753 146.511 114.352 148.158 114.352C149.236 114.352 150.269 114.127 151.257 113.678C152.275 113.199 153.188 112.525 153.996 111.657C154.804 110.789 155.433 109.756 155.882 108.558V93.8726H159.834V112.825C159.834 113.304 159.924 113.663 160.104 113.902C160.313 114.112 160.643 114.232 161.092 114.262V117.316C160.643 117.375 160.283 117.405 160.014 117.405C159.774 117.435 159.535 117.45 159.295 117.45C158.547 117.45 157.903 117.226 157.364 116.777C156.825 116.298 156.541 115.714 156.511 115.025L156.421 112.286C155.403 114.022 154.026 115.369 152.289 116.328C150.583 117.286 148.712 117.765 146.676 117.765C144.221 117.765 142.364 116.941 141.107 115.295C139.849 113.618 139.221 111.163 139.221 107.929Z" fill="#1F1E23"></path><path d="M134.42 109.097C134.42 110.744 134.001 112.181 133.162 113.409C132.324 114.636 131.186 115.594 129.749 116.283C128.342 116.972 126.785 117.316 125.079 117.316H109.944V85.43H125.797C127.294 85.43 128.582 85.8342 129.659 86.6426C130.767 87.421 131.605 88.4389 132.174 89.6964C132.773 90.924 133.073 92.2114 133.073 93.5587C133.073 95.1155 132.668 96.5826 131.86 97.9598C131.082 99.3071 129.959 100.31 128.492 100.969C130.318 101.508 131.755 102.511 132.803 103.978C133.881 105.415 134.42 107.121 134.42 109.097ZM130.333 108.379C130.333 107.391 130.108 106.478 129.659 105.639C129.24 104.801 128.656 104.127 127.908 103.618C127.189 103.109 126.351 102.855 125.393 102.855H113.986V113.813H125.079C126.067 113.813 126.95 113.559 127.728 113.05C128.537 112.541 129.165 111.882 129.614 111.074C130.094 110.235 130.333 109.337 130.333 108.379ZM113.986 88.933V99.5766H124.135C125.094 99.5766 125.932 99.3371 126.65 98.858C127.399 98.379 127.983 97.7353 128.402 96.9269C128.851 96.1185 129.076 95.2353 129.076 94.2772C129.076 93.2593 128.866 92.3611 128.447 91.5826C128.058 90.7743 127.504 90.1306 126.785 89.6515C126.097 89.1725 125.303 88.933 124.405 88.933H113.986Z" fill="#1F1E23"></path></svg>